<svg width="124" height="74" viewBox="0 0 124 74" fill="none" xmlns="http://www.w3.org/2000/svg">
<path d="M43.5771 27.9406C44.1757 27.8461 44.6062 27.8005 44.8687 27.8005C46.4579 27.8005 47.2525 28.5286 47.2525 29.9882V40.6993L54.5437 29.0607C54.8237 28.5951 55.1352 28.2661 55.4817 28.0806C55.8283 27.8951 56.2623 27.8005 56.7873 27.8005C57.4419 27.8005 58.0125 27.8565 58.499 27.9685V46.7023H54.8272V34.1956L46.836 46.7023H43.5842V27.9406H43.5771Z" fill="#24222E"/>
<path d="M65.9273 35.5398H72.9944V27.9406C73.5545 27.8461 74.0235 27.8005 74.3981 27.8005C75.1646 27.8005 75.7632 27.9826 76.1938 28.3466C76.6243 28.7106 76.8378 29.2567 76.8378 29.9882V46.7023H72.9944V38.571H65.9273V46.7023H62.084V27.9406C62.6825 27.8461 63.1305 27.8005 63.4316 27.8005C65.0942 27.8005 65.9273 28.5286 65.9273 29.9882V35.5398Z" fill="#24222E"/>
<path d="M84.7453 31.056H78.8858C78.8298 30.72 78.8018 30.3455 78.8018 29.936C78.8018 29.3199 79.0152 28.8299 79.4458 28.4623C79.8763 28.0983 80.4538 27.9163 81.1854 27.9163H94.3641C94.4202 28.3083 94.4482 28.7108 94.4482 29.1203C94.4482 29.7189 94.2486 30.1915 93.8461 30.538C93.4436 30.8845 92.88 31.056 92.1484 31.056H88.6167V46.7025H84.7453V31.056Z" fill="#24222E"/>
<path d="M106.418 43.7308C107.167 43.7308 107.741 43.9023 108.143 44.2488C108.546 44.5953 108.746 45.0854 108.746 45.7224C108.746 45.929 108.742 46.1005 108.731 46.2406C108.721 46.3806 108.707 46.5345 108.689 46.7025H96.5469V27.9128H108.241C108.297 28.1929 108.325 28.5394 108.325 28.9489C108.325 29.6595 108.143 30.1636 107.779 30.4646C107.415 30.7621 106.803 30.9126 105.942 30.9126H100.418V35.5401H106.362V38.5399H100.418V43.7273H106.418V43.7308Z" fill="#24222E"/>
<path d="M124.001 33.44C124.001 35.5717 123.336 37.1993 122.009 38.3194C120.682 39.4395 118.792 40.0031 116.345 40.0031H114.998V46.7062H111.126V28.032C112.733 27.8465 114.389 27.752 116.09 27.752C118.743 27.752 120.724 28.221 122.034 29.1556C123.343 30.0902 123.997 31.5218 123.997 33.447L124.001 33.44ZM120.077 33.636C120.077 32.5894 119.769 31.7983 119.153 31.2663C118.537 30.7342 117.648 30.4682 116.489 30.4682C115.908 30.4682 115.404 30.4962 114.973 30.5522V37.2833H115.897C117.375 37.2833 118.439 36.9928 119.093 36.4152C119.748 35.8377 120.073 34.9101 120.073 33.6395L120.077 33.636Z" fill="#24222E"/>
<path d="M47.4205 72.0901H43.5771V53.3285C44.1757 53.234 44.6238 53.1884 44.9248 53.1884C46.5875 53.1884 47.4205 53.9165 47.4205 55.3761V72.0901ZM54.3757 59.412C54.1341 59.769 53.8856 60.1191 53.6335 60.4621C53.3815 60.8086 53.0875 61.1201 52.7515 61.4001C52.4154 61.6802 52.0024 61.9147 51.5193 62.1002C52.1179 62.2507 52.636 62.5168 53.0771 62.8983C53.5146 63.2833 54.0641 63.9974 54.7187 65.044L58.87 71.7471C58.1419 72.1777 57.4385 72.3912 56.7664 72.3912C56.0943 72.3912 55.5273 72.2757 55.0687 72.0412C54.6102 71.8067 54.2216 71.4391 53.9066 70.935L52.0549 67.9353C51.6629 67.2807 51.2884 66.6716 50.9348 66.1116C50.5778 65.5515 50.2068 65.079 49.8147 64.694C49.4227 64.3125 48.9537 64.0429 48.4111 63.8959V60.9241C48.8591 60.8121 49.2512 60.5881 49.5872 60.252C49.9233 59.916 50.2698 59.4715 50.6233 58.9185C50.9769 58.3689 51.4179 57.7073 51.943 56.9407L53.0911 55.2571C53.5951 54.529 54.0956 54.0005 54.5926 53.6715C55.0862 53.346 55.6253 53.1814 56.2063 53.1814C56.9554 53.1814 57.5014 53.3319 57.8479 53.6294C58.1945 53.927 58.366 54.4065 58.366 55.0611C58.366 55.3236 58.3555 55.5196 58.338 55.6491C57.834 55.6491 57.3929 55.7576 57.0184 55.9711C56.6439 56.1847 56.2973 56.5382 55.9822 57.0212L54.3827 59.405L54.3757 59.412Z" fill="#24222E"/>
<path d="M76.3896 62.6385C76.3896 65.7433 75.6475 68.1725 74.1599 69.9297C72.6723 71.6869 70.558 72.5654 67.8068 72.5654C65.9936 72.5654 64.4605 72.1628 63.2074 71.3613C61.9543 70.5562 61.0057 69.4081 60.3616 67.9135C59.7175 66.4189 59.3955 64.6687 59.3955 62.67C59.3955 60.6713 59.7491 58.9562 60.4596 57.4685C61.1702 55.9809 62.1713 54.8573 63.4594 54.0907C64.751 53.3242 66.2737 52.9426 68.0308 52.9426C70.7051 52.9426 72.7667 53.7932 74.2124 55.4944C75.6615 57.1955 76.3861 59.5792 76.3861 62.6455L76.3896 62.6385ZM72.4342 62.6665C72.4342 60.5348 72.0562 58.8932 71.3001 57.7451C70.544 56.597 69.4449 56.0194 68.0063 56.0194C66.4907 56.0194 65.3425 56.5935 64.5585 57.7451C63.7744 58.8932 63.3824 60.5348 63.3824 62.6665C63.3824 64.7982 63.7744 66.4958 64.5585 67.7C65.3425 68.9076 66.4662 69.5097 67.9223 69.5097C69.3784 69.5097 70.4986 68.9111 71.2721 67.714C72.0492 66.5169 72.4342 64.8367 72.4342 62.6665Z" fill="#24222E"/>
<path d="M82.0802 53.1883C82.6017 53.1883 83.0463 53.3108 83.4138 53.5524C83.7779 53.7939 84.0824 54.1964 84.3239 54.7565L88.5873 64.7954L92.8787 54.8685C93.3827 53.7484 94.1598 53.1848 95.2064 53.1848C96.0674 53.1848 96.7115 53.2688 97.1421 53.4368L98.4897 72.083H94.8458L93.9778 59.6324L90.1624 68.1557H86.9387L83.2388 59.9964L82.4267 72.083H78.7549L80.1306 53.4368C80.6731 53.2688 81.3276 53.1848 82.0942 53.1848L82.0802 53.1883Z" fill="#24222E"/>
<path d="M104.683 53.1883C105.205 53.1883 105.649 53.3108 106.017 53.5524C106.381 53.7939 106.685 54.1964 106.927 54.7565L111.19 64.7954L115.482 54.8685C115.986 53.7484 116.763 53.1848 117.809 53.1848C118.67 53.1848 119.315 53.2688 119.745 53.4368L121.093 72.083H117.449L116.581 59.6324L112.765 68.1557H109.542L105.842 59.9964L105.03 72.083H101.358L102.734 53.4368C103.276 53.2688 103.931 53.1848 104.697 53.1848L104.683 53.1883Z" fill="#24222E"/>
<path fill-rule="evenodd" clip-rule="evenodd" d="M21.4091 0.199547C18.9939 0.784101 16.7571 2.58677 15.644 4.84448C14.6324 6.89217 14.3769 8.72631 14.8075 10.767C15.5145 14.1098 18.2553 16.9346 21.5421 17.7082C27.1426 19.0278 32.5716 14.7714 32.5961 9.03435C32.6066 6.36711 31.854 4.55741 29.9148 2.60773C28.6022 1.28811 27.4821 0.630097 25.837 0.210058C24.7589 -0.0664672 22.5222 -0.0699778 21.4091 0.199547ZM21.101 24.8067C10.5791 26.4134 2.44783 34.2086 0.358145 44.6886C-0.0793944 46.8868 -0.124899 51.2132 0.270637 53.3274C1.27173 58.6934 3.53294 63.0127 7.27828 66.7231C9.7425 69.1628 12.2522 70.8395 15.231 72.0436C20.7965 74.2838 26.411 74.5043 32.2145 72.6982L33.7616 72.2187V66.5096C33.7616 63.3698 33.7266 60.8006 33.6846 60.8006C33.6426 60.8006 33.1911 60.9686 32.6801 61.1751C29.7538 62.3652 25.7284 62.2812 22.8442 60.9756C20.0614 59.7155 17.9017 57.6503 16.5436 54.9515C15.0315 51.9483 14.79 48.3815 15.8751 45.0982C16.4841 43.2535 17.4642 41.7413 19.0988 40.1171C20.4045 38.8185 20.7265 38.5911 22.2877 37.8245C24.7869 36.6029 26.992 36.1968 29.4667 36.5014C30.6078 36.6414 32.442 37.1524 33.5026 37.625C33.7511 37.737 33.7686 37.4114 33.7686 31.9999V26.2559L32.3545 25.8044C29.7608 24.9748 28.1927 24.7228 25.2349 24.6562C23.3552 24.6142 22.0811 24.6632 21.1045 24.8102L21.101 24.8067Z" fill="#24222E"/>
</svg>
